<?xml version="1.0" standalone="no"?>
<!DOCTYPE svg PUBLIC "-//W3C//DTD SVG 20010904//EN"
 "http://www.w3.org/TR/2001/REC-SVG-20010904/DTD/svg10.dtd">
<svg version="1.0" xmlns="http://www.w3.org/2000/svg"
 width="150.000000pt" height="150.000000pt" viewBox="0 0 150.000000 150.000000"
 preserveAspectRatio="xMidYMid meet">
<metadata>
Created by potrace 1.14, written by Peter Selinger 2001-2017
</metadata>
<g transform="translate(0.000000,150.000000) scale(0.100000,-0.100000)"
fill="#000000" stroke="none">
<path d="M574 1218 c-19 -23 -19 -23 1 -7 11 10 29 19 40 22 19 4 19 5 -1 6
-11 0 -29 -9 -40 -21z"/>
<path d="M685 1203 c11 -3 24 -10 28 -17 6 -7 7 -6 4 4 -2 8 -14 16 -28 17
-19 1 -20 1 -4 -4z"/>
<path d="M543 1135 c0 -22 2 -30 4 -17 2 12 2 30 0 40 -3 9 -5 -1 -4 -23z"/>
<path d="M721 1154 c0 -11 3 -14 6 -6 3 7 2 16 -1 19 -3 4 -6 -2 -5 -13z"/>
<path d="M383 1106 c-24 -21 -26 -26 -13 -40 8 -11 22 -15 36 -12 13 4 24 1
27 -7 2 -6 7 3 11 20 6 24 3 37 -8 48 -19 19 -20 19 -53 -9z"/>
<path d="M694 1048 l-19 -23 23 19 c21 18 27 26 19 26 -2 0 -12 -10 -23 -22z"/>
<path d="M580 1056 c0 -2 7 -6 15 -10 8 -3 15 -1 15 4 0 6 -7 10 -15 10 -8 0
-15 -2 -15 -4z"/>
<path d="M820 1051 c0 -5 -10 -11 -21 -14 -18 -5 -21 -11 -17 -34 7 -33 -25
-133 -36 -115 -4 7 -15 12 -25 12 -10 0 -21 9 -24 20 -5 19 -8 20 -38 8 l-32
-14 -1 -90 c-1 -61 -6 -96 -15 -107 -26 -32 -34 -7 -28 89 6 92 6 93 -15 85
-15 -6 -28 -27 -43 -72 -23 -68 -20 -104 13 -141 21 -25 71 -23 99 3 l22 22
11 -29 c22 -62 30 -66 95 -49 l30 8 -26 -21 c-24 -19 -66 -90 -57 -96 1 -2 17
-8 34 -13 30 -10 32 -9 44 23 16 41 30 44 30 7 0 -41 -37 -153 -51 -153 -12 0
-11 42 1 74 5 14 7 26 3 26 -4 0 -67 -18 -141 -41 -74 -22 -136 -38 -139 -35
-3 3 -16 1 -29 -4 -19 -8 -22 -6 -17 8 5 13 3 14 -7 5 -17 -15 -2 -36 21 -30
11 3 17 2 14 -3 -12 -20 28 -16 101 10 130 45 124 45 124 18 0 -38 22 -60 55
-56 26 3 33 11 51 58 12 30 27 66 33 80 23 54 18 108 -11 119 -21 8 -20 9 17
20 29 8 41 8 46 -1 4 -6 19 -8 38 -5 22 5 33 2 39 -10 8 -13 14 -14 46 -3 27
8 40 9 50 1 9 -8 22 -8 47 0 50 17 59 27 52 60 -5 24 1 35 41 73 42 42 46 49
46 95 0 66 -29 91 -104 91 -29 0 -57 5 -63 11 -8 8 -25 7 -62 -4 -28 -8 -51
-11 -51 -6 0 11 -41 11 -59 0 -7 -5 -25 -4 -41 2 -28 11 -28 11 -9 25 25 17
24 28 -3 69 -22 32 -38 42 -38 24z m8 -97 c-10 -10 -28 6 -28 24 0 15 1 15 17
-1 9 -9 14 -19 11 -23z m-47 -378 c-12 -18 -21 -41 -21 -51 0 -11 -5 -15 -16
-11 -9 3 -18 6 -20 6 -5 0 24 60 38 78 6 6 17 12 25 12 12 0 10 -7 -6 -34z
m-146 -156 c-11 -5 -27 -9 -35 -9 -9 0 -8 4 5 9 11 5 27 9 35 9 9 0 8 -4 -5
-9z"/>
<path d="M633 1023 c9 -2 23 -2 30 0 6 3 -1 5 -18 5 -16 0 -22 -2 -12 -5z"/>
<path d="M424 930 c-28 -11 -73 -125 -81 -202 -6 -57 -6 -58 21 -58 21 0 26 5
26 25 0 18 5 25 20 25 13 0 20 -7 20 -20 0 -11 -5 -20 -12 -20 -9 0 -9 -3 0
-12 20 -20 14 -58 -10 -68 -19 -7 -20 -9 -5 -9 45 -2 73 39 47 65 -8 8 -1 35
20 90 21 55 30 96 30 136 0 57 -1 58 -27 57 -16 0 -38 -4 -49 -9z m16 -135 c0
-33 -4 -45 -15 -45 -8 0 -15 3 -15 6 0 12 23 84 27 84 1 0 3 -20 3 -45z"/>
<path d="M482 691 c-14 -38 -12 -44 7 -32 7 5 11 21 9 37 l-3 29 -13 -34z"/>
<path d="M350 527 c-11 -17 -25 -49 -32 -69 -6 -21 -15 -35 -19 -32 -8 5 -2
-135 7 -163 2 -7 17 -13 34 -13 26 0 33 6 46 36 18 43 30 111 14 79 -5 -11
-14 -33 -20 -49 -18 -50 -23 -19 -10 61 14 87 28 124 31 83 1 -14 1 -36 0 -48
-1 -15 2 -21 8 -17 14 8 14 110 1 134 -17 34 -39 33 -60 -2z"/>
</g>
</svg>
